<svg width="35" height="35" viewBox="0 0 35 35" fill="none" xmlns="http://www.w3.org/2000/svg">
<circle cx="17.5" cy="17.5" r="17.5" fill="#E44545"/>
<path d="M11.8444 11C12.1852 11 12.4785 11.2239 12.5437 11.5335L12.5881 11.875H25.0532C25.6547 11.875 26.1347 12.4287 25.9658 12.9868L24.3658 18.2379C24.2502 18.6152 23.8769 18.875 23.4532 18.875H14.0577L14.3303 20.1875H23.4591C23.8532 20.1875 24.1702 20.4801 24.1702 20.8438C24.1702 21.2074 23.8532 21.5 23.4591 21.5H13.714C13.4 21.5 13.1066 21.2758 13.0414 20.9668L11.256 12.3125H9.7111C9.31852 12.3125 9 12.0186 9 11.6563C9 11.2939 9.31852 11 9.7111 11H11.8444ZM12.7926 23.6875C12.7926 22.9629 13.4296 22.375 14.2148 22.375C14.9999 22.375 15.637 22.9629 15.637 23.6875C15.637 24.4121 14.9999 25 14.2148 25C13.4296 25 12.7926 24.4121 12.7926 23.6875ZM24.1702 23.6875C24.1702 24.4121 23.5332 25 22.748 25C21.9628 25 21.3258 24.4121 21.3258 23.6875C21.3258 22.9629 21.9628 22.375 22.748 22.375C23.5332 22.375 24.1702 22.9629 24.1702 23.6875Z" fill="white"/>
</svg>
