<svg width="162" height="53" viewBox="0 0 162 53" fill="none" xmlns="http://www.w3.org/2000/svg">
<path d="M56.12 41C55.56 41 55.0267 40.8133 54.52 40.44C54.04 40.0667 53.8 39.5333 53.8 38.84V27.08C53.8 26.4667 54 25.9733 54.4 25.6C54.8267 25.2 55.32 25 55.88 25H59.48C61.08 25 62.48 25.3333 63.68 26C64.9067 26.64 65.8533 27.56 66.52 28.76C67.2133 29.96 67.56 31.4 67.56 33.08C67.56 34.5467 67.24 35.88 66.6 37.08C65.9867 38.28 65.12 39.24 64 39.96C62.9067 40.6533 61.64 41 60.2 41H56.12ZM57.76 38.52H59.52C61.2533 38.52 62.5733 38.0667 63.48 37.16C64.3867 36.2267 64.8267 34.8667 64.8 33.08C64.7733 31.2667 64.3067 29.88 63.4 28.92C62.4933 27.96 61.1867 27.48 59.48 27.48H57.8C57 27.48 56.6 27.88 56.6 28.68V37.32C56.6 38.12 56.9867 38.52 57.76 38.52ZM71.5225 41.4C71.1758 41.4 70.8558 41.2933 70.5625 41.08C70.2958 40.8667 70.1625 40.56 70.1625 40.16V24.96C70.1625 24.5067 70.2958 24.1733 70.5625 23.96C70.8558 23.72 71.1758 23.6 71.5225 23.6C71.8692 23.6 72.1758 23.72 72.4425 23.96C72.7358 24.1733 72.8825 24.5067 72.8825 24.96V30.68C73.3092 30.2267 73.8692 29.8667 74.5625 29.6C75.2825 29.3333 75.9492 29.2 76.5625 29.2C77.9492 29.2 79.1225 29.68 80.0825 30.64C81.0692 31.6 81.5625 33.0133 81.5625 34.88V40.16C81.5625 40.56 81.4158 40.8667 81.1225 41.08C80.8292 41.2933 80.5225 41.4 80.2025 41.4C79.8558 41.4 79.5358 41.2933 79.2425 41.08C78.9758 40.8667 78.8425 40.56 78.8425 40.16V35.12C78.8425 33.9467 78.5758 33.08 78.0425 32.52C77.5358 31.96 76.8558 31.68 76.0025 31.68C74.8558 31.68 74.0425 32.04 73.5625 32.76C73.1092 33.4533 72.8825 34.2267 72.8825 35.08V40.16C72.8825 40.56 72.7358 40.8667 72.4425 41.08C72.1758 41.2933 71.8692 41.4 71.5225 41.4ZM89.7366 41.4C88.5899 41.4 87.5632 41.1333 86.6566 40.6C85.7499 40.0667 85.0432 39.3333 84.5366 38.4C84.0299 37.44 83.7766 36.3733 83.7766 35.2C83.7766 34.0533 84.0299 33.0267 84.5366 32.12C85.0432 31.2133 85.7499 30.5067 86.6566 30C87.5632 29.4667 88.5899 29.2 89.7366 29.2C90.4832 29.2 91.1499 29.3333 91.7366 29.6C92.3232 29.84 92.8299 30.16 93.2566 30.56C93.3099 30.1867 93.4699 29.9067 93.7366 29.72C94.0032 29.5067 94.2966 29.4 94.6166 29.4C94.9632 29.4 95.2699 29.52 95.5366 29.76C95.8299 29.9733 95.9766 30.3067 95.9766 30.76V40.16C95.9766 40.56 95.8299 40.8667 95.5366 41.08C95.2699 41.2933 94.9632 41.4 94.6166 41.4C94.2699 41.4 93.9499 41.2933 93.6566 41.08C93.3899 40.8667 93.2566 40.56 93.2566 40.16V40C92.8299 40.4267 92.3232 40.76 91.7366 41C91.1499 41.2667 90.4832 41.4 89.7366 41.4ZM89.9766 38.92C90.9899 38.92 91.7899 38.5867 92.3766 37.92C92.9632 37.2267 93.2566 36.32 93.2566 35.2C93.2566 34.1333 92.9632 33.28 92.3766 32.64C91.7899 32 90.9899 31.68 89.9766 31.68C88.9366 31.68 88.0966 32 87.4566 32.64C86.8166 33.28 86.4966 34.1333 86.4966 35.2C86.4966 36.32 86.8166 37.2267 87.4566 37.92C88.0966 38.5867 88.9366 38.92 89.9766 38.92ZM100.351 41.4C100.004 41.4 99.684 41.2933 99.3906 41.08C99.124 40.8667 98.9906 40.56 98.9906 40.16V24.96C98.9906 24.5067 99.124 24.1733 99.3906 23.96C99.684 23.72 100.004 23.6 100.351 23.6C100.697 23.6 101.004 23.72 101.271 23.96C101.564 24.1733 101.711 24.5067 101.711 24.96V30.68C102.137 30.2267 102.697 29.8667 103.391 29.6C104.111 29.3333 104.777 29.2 105.391 29.2C106.777 29.2 107.951 29.68 108.911 30.64C109.897 31.6 110.391 33.0133 110.391 34.88V40.16C110.391 40.56 110.244 40.8667 109.951 41.08C109.657 41.2933 109.351 41.4 109.031 41.4C108.684 41.4 108.364 41.2933 108.071 41.08C107.804 40.8667 107.671 40.56 107.671 40.16V35.12C107.671 33.9467 107.404 33.08 106.871 32.52C106.364 31.96 105.684 31.68 104.831 31.68C103.684 31.68 102.871 32.04 102.391 32.76C101.937 33.4533 101.711 34.2267 101.711 35.08V40.16C101.711 40.56 101.564 40.8667 101.271 41.08C101.004 41.2933 100.697 41.4 100.351 41.4ZM118.565 41.4C117.418 41.4 116.391 41.1333 115.485 40.6C114.578 40.0667 113.871 39.3333 113.365 38.4C112.858 37.44 112.605 36.3733 112.605 35.2C112.605 34.0533 112.858 33.0267 113.365 32.12C113.871 31.2133 114.578 30.5067 115.485 30C116.391 29.4667 117.418 29.2 118.565 29.2C119.311 29.2 119.978 29.3333 120.565 29.6C121.151 29.84 121.658 30.16 122.085 30.56C122.138 30.1867 122.298 29.9067 122.565 29.72C122.831 29.5067 123.125 29.4 123.445 29.4C123.791 29.4 124.098 29.52 124.365 29.76C124.658 29.9733 124.805 30.3067 124.805 30.76V40.16C124.805 40.56 124.658 40.8667 124.365 41.08C124.098 41.2933 123.791 41.4 123.445 41.4C123.098 41.4 122.778 41.2933 122.485 41.08C122.218 40.8667 122.085 40.56 122.085 40.16V40C121.658 40.4267 121.151 40.76 120.565 41C119.978 41.2667 119.311 41.4 118.565 41.4ZM118.805 38.92C119.818 38.92 120.618 38.5867 121.205 37.92C121.791 37.2267 122.085 36.32 122.085 35.2C122.085 34.1333 121.791 33.28 121.205 32.64C120.618 32 119.818 31.68 118.805 31.68C117.765 31.68 116.925 32 116.285 32.64C115.645 33.28 115.325 34.1333 115.325 35.2C115.325 36.32 115.645 37.2267 116.285 37.92C116.925 38.5867 117.765 38.92 118.805 38.92ZM130.539 35.08V40.16C130.539 40.56 130.392 40.8667 130.099 41.08C129.832 41.2933 129.525 41.4 129.179 41.4C128.832 41.4 128.512 41.2933 128.219 41.08C127.952 40.8667 127.819 40.56 127.819 40.16V30.76C127.819 30.3067 127.952 29.9733 128.219 29.76C128.512 29.52 128.832 29.4 129.179 29.4C129.525 29.4 129.832 29.52 130.099 29.76C130.392 29.9733 130.539 30.3067 130.539 30.76V30.92C130.912 30.4133 131.392 30 131.979 29.68C132.592 29.36 133.232 29.2 133.899 29.2C134.219 29.2 134.539 29.24 134.859 29.32C135.179 29.4 135.419 29.56 135.579 29.8C135.739 30.04 135.819 30.3067 135.819 30.6C135.819 30.9467 135.699 31.2667 135.459 31.56C135.245 31.8267 134.925 31.96 134.499 31.96C134.312 31.96 134.112 31.9333 133.899 31.88C133.712 31.8267 133.472 31.8 133.179 31.8C132.405 31.8 131.765 32.0933 131.259 32.68C130.779 33.2667 130.539 34.0667 130.539 35.08ZM139.023 41.4C138.677 41.4 138.357 41.2933 138.063 41.08C137.797 40.8667 137.663 40.56 137.663 40.16V30.56C137.663 30.1067 137.797 29.7733 138.063 29.56C138.357 29.32 138.677 29.2 139.023 29.2C139.37 29.2 139.677 29.32 139.943 29.56C140.237 29.7733 140.383 30.1067 140.383 30.56V40.16C140.383 40.56 140.237 40.8667 139.943 41.08C139.677 41.2933 139.37 41.4 139.023 41.4ZM139.063 27C138.557 27 138.117 26.84 137.743 26.52C137.397 26.1733 137.223 25.76 137.223 25.28C137.223 24.8267 137.397 24.44 137.743 24.12C138.117 23.7733 138.557 23.6 139.063 23.6C139.543 23.6 139.957 23.7733 140.303 24.12C140.65 24.44 140.823 24.8267 140.823 25.28C140.823 25.76 140.65 26.1733 140.303 26.52C139.957 26.84 139.543 27 139.063 27ZM153.679 41.4C153.332 41.4 153.012 41.2933 152.719 41.08C152.452 40.8667 152.319 40.56 152.319 40.16V35.12C152.319 33.9467 152.052 33.08 151.519 32.52C151.012 31.96 150.332 31.68 149.479 31.68C148.386 31.68 147.586 32.04 147.079 32.76C146.599 33.4533 146.359 34.2267 146.359 35.08V40.16C146.359 40.56 146.212 40.8667 145.919 41.08C145.652 41.2933 145.346 41.4 144.999 41.4C144.652 41.4 144.332 41.2933 144.039 41.08C143.772 40.8667 143.639 40.56 143.639 40.16V30.76C143.639 30.3067 143.772 29.9733 144.039 29.76C144.332 29.52 144.652 29.4 144.999 29.4C145.346 29.4 145.652 29.52 145.919 29.76C146.212 29.9733 146.359 30.3067 146.359 30.76C146.812 30.3067 147.399 29.9333 148.119 29.64C148.839 29.3467 149.519 29.2 150.159 29.2C151.652 29.2 152.839 29.68 153.719 30.64C154.599 31.6 155.039 33.0133 155.039 34.88V40.16C155.039 40.56 154.892 40.8667 154.599 41.08C154.306 41.2933 153.999 41.4 153.679 41.4Z" fill="black"/>
<path d="M6.125 8.8125C6.17572 8.8125 6.2274 8.8125 6.27812 8.8125C6.98633 5.461 10.0775 2.9375 13.7812 2.9375C15.1307 2.9375 16.4705 3.31387 17.6955 3.97021C18.9684 1.61104 21.5428 0 24.5 0C27.4572 0 30.0316 1.61195 31.3045 3.97021C32.4434 3.31387 33.7832 2.9375 35.2188 2.9375C38.9225 2.9375 41.9275 5.461 42.7219 8.8125C42.7697 8.8125 42.8271 8.8125 42.875 8.8125C46.2533 8.8125 49 11.4471 49 14.6875C49 15.7615 48.7033 16.7621 48.177 17.625H0.819506C0.298402 16.7621 0.000124414 15.7615 0.000124414 14.6875C0.000124414 11.4471 2.74285 8.8125 6.125 8.8125ZM9.57031e-05 23.0777C9.57031e-05 21.6916 1.17523 20.5625 2.62514 20.5625H46.3777C47.8229 20.5625 49 21.6916 49 23.0777C49 29.5494 44.7508 35.0756 38.7885 37.2236L38.6162 38.4721C38.4248 39.9408 37.1232 41.125 35.5824 41.125H13.4176C11.8768 41.125 10.5752 39.9408 10.3838 38.4721L10.2115 37.2236C4.24539 35.0756 0 29.5494 0 23.0777H9.57031e-05Z" fill="#DFA19D"/>
</svg>
