<svg width="35" height="49" viewBox="0 0 35 49" fill="none" xmlns="http://www.w3.org/2000/svg">
<rect y="14" width="35" height="35" rx="10" fill="#FEBB0F"/>
<path d="M12.08 32.744C11.664 32.744 11.312 32.632 11.024 32.408C10.768 32.152 10.64 31.832 10.64 31.448C10.64 31.064 10.768 30.744 11.024 30.488C11.312 30.232 11.664 30.104 12.08 30.104H16.496V25.832C16.496 25.384 16.624 25.032 16.88 24.776C17.136 24.52 17.456 24.392 17.84 24.392C18.224 24.392 18.528 24.52 18.752 24.776C19.008 25.032 19.136 25.384 19.136 25.832V30.104H23.12C23.568 30.104 23.92 30.232 24.176 30.488C24.432 30.744 24.56 31.064 24.56 31.448C24.56 31.832 24.432 32.152 24.176 32.408C23.92 32.632 23.568 32.744 23.12 32.744H19.136V36.872C19.136 37.288 19.008 37.64 18.752 37.928C18.528 38.184 18.224 38.312 17.84 38.312C17.456 38.312 17.136 38.184 16.88 37.928C16.624 37.64 16.496 37.288 16.496 36.872V32.744H12.08Z" fill="white"/>
</svg>
